<svg id="visual" viewBox="0 0 900 600" width="900" height="600" xmlns="http://www.w3.org/2000/svg" xmlns:xlink="http://www.w3.org/1999/xlink" version="1.1"><g stroke-width="1" stroke-linejoin="bevel"><path d="M445 289L454 218L361.5 169Z" fill="#586a6a" stroke="#586a6a"></path><path d="M361.5 169L303.5 304L445 289Z" fill="#768686" stroke="#768686"></path><path d="M239 178L240 272L303.5 304Z" fill="#6f7f7f" stroke="#6f7f7f"></path><path d="M217 388L331.5 386L303.5 304Z" fill="#768686" stroke="#768686"></path><path d="M303.5 304L331.5 386L445 289Z" fill="#49585a" stroke="#49585a"></path><path d="M361.5 169L239 178L303.5 304Z" fill="#7e8d8d" stroke="#7e8d8d"></path><path d="M576.5 323L528.5 172L454 218Z" fill="#768686" stroke="#768686"></path><path d="M454 218L418 72L361.5 169Z" fill="#536465" stroke="#536465"></path><path d="M528.5 172L418 72L454 218Z" fill="#49585a" stroke="#49585a"></path><path d="M361.5 169L359.5 68L239 178Z" fill="#768686" stroke="#768686"></path><path d="M418 72L359.5 68L361.5 169Z" fill="#455354" stroke="#455354"></path><path d="M331.5 386L475 405L445 289Z" fill="#6f7f7f" stroke="#6f7f7f"></path><path d="M445 289L576.5 323L454 218Z" fill="#536465" stroke="#536465"></path><path d="M475 405L576.5 323L445 289Z" fill="#455354" stroke="#455354"></path><path d="M96.5 314L217 388L240 272Z" fill="#677878" stroke="#677878"></path><path d="M240 272L217 388L303.5 304Z" fill="#586a6a" stroke="#586a6a"></path><path d="M331.5 386L342.5 501L475 405Z" fill="#455354" stroke="#455354"></path><path d="M652 190L576.5 122L528.5 172Z" fill="#455354" stroke="#455354"></path><path d="M528.5 172L576.5 122L418 72Z" fill="#536465" stroke="#536465"></path><path d="M359.5 68L194 101L239 178Z" fill="#677878" stroke="#677878"></path><path d="M85.5 182L96.5 314L240 272Z" fill="#586a6a" stroke="#586a6a"></path><path d="M418 72L353.5 0L359.5 68Z" fill="#49585a" stroke="#49585a"></path><path d="M359.5 68L217 0L194 101Z" fill="#455354" stroke="#455354"></path><path d="M464 0L353.5 0L418 72Z" fill="#5f7171" stroke="#5f7171"></path><path d="M576.5 122L464 0L418 72Z" fill="#768686" stroke="#768686"></path><path d="M217 388L342.5 501L331.5 386Z" fill="#586a6a" stroke="#586a6a"></path><path d="M475 405L576.5 416L576.5 323Z" fill="#536465" stroke="#536465"></path><path d="M449 525L576.5 416L475 405Z" fill="#7e8d8d" stroke="#7e8d8d"></path><path d="M576.5 323L652 190L528.5 172Z" fill="#455354" stroke="#455354"></path><path d="M576.5 122L546.5 0L464 0Z" fill="#49585a" stroke="#49585a"></path><path d="M675 288L652 190L576.5 323Z" fill="#586a6a" stroke="#586a6a"></path><path d="M342.5 501L449 525L475 405Z" fill="#6f7f7f" stroke="#6f7f7f"></path><path d="M85.5 182L240 272L239 178Z" fill="#586a6a" stroke="#586a6a"></path><path d="M217 388L201 526L342.5 501Z" fill="#768686" stroke="#768686"></path><path d="M353.5 0L217 0L359.5 68Z" fill="#768686" stroke="#768686"></path><path d="M194 101L85.5 182L239 178Z" fill="#5f7171" stroke="#5f7171"></path><path d="M651 0L546.5 0L576.5 122Z" fill="#5f7171" stroke="#5f7171"></path><path d="M703 398L675 288L576.5 323Z" fill="#455354" stroke="#455354"></path><path d="M91.5 117L85.5 182L194 101Z" fill="#404d4f" stroke="#404d4f"></path><path d="M117.5 0L91.5 117L194 101Z" fill="#7e8d8d" stroke="#7e8d8d"></path><path d="M128.5 485L201 526L217 388Z" fill="#49585a" stroke="#49585a"></path><path d="M342.5 501L417 600L449 525Z" fill="#768686" stroke="#768686"></path><path d="M0 396L88.5 430L96.5 314Z" fill="#455354" stroke="#455354"></path><path d="M96.5 314L88.5 430L217 388Z" fill="#6f7f7f" stroke="#6f7f7f"></path><path d="M88.5 430L128.5 485L217 388Z" fill="#49585a" stroke="#49585a"></path><path d="M685 516L703 398L576.5 416Z" fill="#586a6a" stroke="#586a6a"></path><path d="M576.5 416L703 398L576.5 323Z" fill="#677878" stroke="#677878"></path><path d="M757.5 216L706 83L652 190Z" fill="#7e8d8d" stroke="#7e8d8d"></path><path d="M313.5 600L417 600L342.5 501Z" fill="#49585a" stroke="#49585a"></path><path d="M449 525L594.5 533L576.5 416Z" fill="#4e5e5f" stroke="#4e5e5f"></path><path d="M551.5 600L594.5 533L449 525Z" fill="#536465" stroke="#536465"></path><path d="M217 0L117.5 0L194 101Z" fill="#4e5e5f" stroke="#4e5e5f"></path><path d="M229 600L313.5 600L201 526Z" fill="#536465" stroke="#536465"></path><path d="M201 526L313.5 600L342.5 501Z" fill="#7e8d8d" stroke="#7e8d8d"></path><path d="M757.5 216L652 190L675 288Z" fill="#536465" stroke="#536465"></path><path d="M652 190L706 83L576.5 122Z" fill="#768686" stroke="#768686"></path><path d="M706 83L651 0L576.5 122Z" fill="#677878" stroke="#677878"></path><path d="M793.5 285L757.5 216L675 288Z" fill="#5f7171" stroke="#5f7171"></path><path d="M0 95L85.5 182L91.5 117Z" fill="#49585a" stroke="#49585a"></path><path d="M0 95L0 225L85.5 182Z" fill="#677878" stroke="#677878"></path><path d="M85.5 182L0 225L96.5 314Z" fill="#768686" stroke="#768686"></path><path d="M0 225L0 282L96.5 314Z" fill="#586a6a" stroke="#586a6a"></path><path d="M94.5 600L229 600L201 526Z" fill="#455354" stroke="#455354"></path><path d="M417 600L551.5 600L449 525Z" fill="#6f7f7f" stroke="#6f7f7f"></path><path d="M594.5 533L685 516L576.5 416Z" fill="#49585a" stroke="#49585a"></path><path d="M683 600L685 516L594.5 533Z" fill="#404d4f" stroke="#404d4f"></path><path d="M703 398L793.5 285L675 288Z" fill="#404d4f" stroke="#404d4f"></path><path d="M117.5 0L0 95L91.5 117Z" fill="#586a6a" stroke="#586a6a"></path><path d="M0 523L94.5 600L128.5 485Z" fill="#5f7171" stroke="#5f7171"></path><path d="M128.5 485L94.5 600L201 526Z" fill="#6f7f7f" stroke="#6f7f7f"></path><path d="M0 282L0 396L96.5 314Z" fill="#768686" stroke="#768686"></path><path d="M818.5 377L793.5 285L703 398Z" fill="#536465" stroke="#536465"></path><path d="M757.5 216L771.5 104L706 83Z" fill="#7e8d8d" stroke="#7e8d8d"></path><path d="M900 184L771.5 104L757.5 216Z" fill="#768686" stroke="#768686"></path><path d="M706 83L797.5 0L651 0Z" fill="#768686" stroke="#768686"></path><path d="M117.5 0L0 0L0 95Z" fill="#4e5e5f" stroke="#4e5e5f"></path><path d="M0 523L128.5 485L88.5 430Z" fill="#5f7171" stroke="#5f7171"></path><path d="M817.5 467L818.5 377L703 398Z" fill="#5f7171" stroke="#5f7171"></path><path d="M900 86L797.5 0L771.5 104Z" fill="#49585a" stroke="#49585a"></path><path d="M551.5 600L683 600L594.5 533Z" fill="#4e5e5f" stroke="#4e5e5f"></path><path d="M685 516L817.5 467L703 398Z" fill="#6f7f7f" stroke="#6f7f7f"></path><path d="M0 396L0 523L88.5 430Z" fill="#536465" stroke="#536465"></path><path d="M900 184L757.5 216L793.5 285Z" fill="#586a6a" stroke="#586a6a"></path><path d="M771.5 104L797.5 0L706 83Z" fill="#4e5e5f" stroke="#4e5e5f"></path><path d="M815.5 600L817.5 467L685 516Z" fill="#4e5e5f" stroke="#4e5e5f"></path><path d="M0 523L0 600L94.5 600Z" fill="#536465" stroke="#536465"></path><path d="M900 322L900 184L793.5 285Z" fill="#677878" stroke="#677878"></path><path d="M900 322L793.5 285L818.5 377Z" fill="#6f7f7f" stroke="#6f7f7f"></path><path d="M900 368L900 322L818.5 377Z" fill="#49585a" stroke="#49585a"></path><path d="M817.5 467L900 368L818.5 377Z" fill="#6f7f7f" stroke="#6f7f7f"></path><path d="M900 184L900 86L771.5 104Z" fill="#677878" stroke="#677878"></path><path d="M683 600L815.5 600L685 516Z" fill="#6f7f7f" stroke="#6f7f7f"></path><path d="M817.5 467L900 492L900 368Z" fill="#536465" stroke="#536465"></path><path d="M900 86L900 0L797.5 0Z" fill="#5f7171" stroke="#5f7171"></path><path d="M815.5 600L900 492L817.5 467Z" fill="#5f7171" stroke="#5f7171"></path><path d="M815.5 600L900 600L900 492Z" fill="#768686" stroke="#768686"></path></g></svg>